<svg id="svg" version="1.1" xmlns="http://www.w3.org/2000/svg" xmlns:xlink="http://www.w3.org/1999/xlink" width="400" height="400" viewBox="0, 0, 400,400"><g id="svgg"><path id="path0" d="M100.662 70.195 C 100.388 70.469,99.542 70.799,98.782 70.928 C 95.734 71.445,94.800 71.707,94.800 72.045 C 94.800 72.240,94.339 72.400,93.776 72.400 C 93.196 72.400,92.860 72.573,93.000 72.800 C 93.215 73.148,92.404 73.390,91.500 73.247 C 91.335 73.221,91.200 73.452,91.200 73.761 C 91.200 74.069,90.676 74.504,90.035 74.728 C 88.696 75.195,83.200 80.621,83.200 81.477 C 83.200 81.790,83.020 81.936,82.800 81.800 C 82.580 81.664,82.400 81.923,82.400 82.376 C 82.400 82.842,82.139 83.200,81.800 83.200 C 81.470 83.200,81.221 83.335,81.247 83.500 C 81.376 84.317,81.164 85.225,80.885 85.052 C 80.712 84.945,80.530 85.332,80.483 85.911 C 80.435 86.491,80.216 87.144,79.998 87.362 C 79.779 87.581,79.600 88.163,79.600 88.656 C 79.600 89.149,79.443 89.650,79.252 89.768 C 79.060 89.886,78.806 91.382,78.687 93.092 C 78.567 94.801,78.373 96.610,78.256 97.111 C 78.133 97.632,78.204 97.921,78.421 97.787 C 78.647 97.647,78.800 98.765,78.800 100.553 C 78.800 102.203,78.980 103.664,79.200 103.800 C 79.420 103.936,79.600 104.487,79.600 105.024 C 79.600 105.561,79.780 106.000,80.000 106.000 C 80.220 106.000,80.400 106.324,80.400 106.720 C 80.400 107.116,80.616 107.656,80.880 107.920 C 81.144 108.184,81.225 108.400,81.061 108.400 C 80.709 108.400,82.967 111.766,84.262 113.173 C 84.754 113.708,85.066 114.293,84.955 114.473 C 84.844 114.653,85.033 114.800,85.376 114.800 C 85.719 114.800,86.000 114.989,86.000 115.219 C 86.000 115.654,87.994 117.565,88.472 117.587 C 88.621 117.594,89.411 118.230,90.227 119.000 C 91.044 119.770,92.047 120.400,92.456 120.400 C 92.865 120.400,93.200 120.551,93.200 120.736 C 93.200 121.182,96.930 123.200,97.754 123.200 C 98.109 123.200,98.400 123.380,98.400 123.600 C 98.400 123.820,98.683 124.000,99.029 124.000 C 99.374 124.000,99.935 124.278,100.275 124.618 C 100.615 124.958,101.097 125.166,101.346 125.080 C 101.596 124.995,102.070 125.227,102.400 125.595 C 102.730 125.963,103.900 126.783,105.000 127.418 C 106.100 128.052,107.060 128.712,107.133 128.885 C 107.207 129.058,107.477 129.203,107.733 129.207 C 107.990 129.211,108.584 129.619,109.052 130.114 C 109.521 130.609,110.416 131.281,111.040 131.607 C 112.266 132.247,112.425 132.374,115.342 135.031 C 116.410 136.004,117.130 136.811,116.942 136.825 C 116.754 136.839,117.009 137.015,117.509 137.216 C 118.010 137.417,118.583 137.990,118.784 138.491 C 118.985 138.991,119.161 139.252,119.175 139.071 C 119.212 138.584,120.400 139.867,120.400 140.395 C 120.400 140.644,120.556 140.751,120.747 140.633 C 120.938 140.515,121.523 140.983,122.047 141.672 C 122.571 142.362,123.225 143.155,123.500 143.435 C 123.775 143.714,124.000 144.136,124.000 144.371 C 124.000 144.974,125.480 146.387,125.788 146.079 C 125.928 145.939,125.935 146.105,125.803 146.448 C 125.671 146.791,125.842 147.303,126.182 147.585 C 126.522 147.867,126.800 148.331,126.800 148.616 C 126.800 148.900,126.997 149.199,127.237 149.279 C 127.477 149.359,127.702 149.897,127.737 150.474 C 127.772 151.051,127.935 151.440,128.100 151.338 C 128.265 151.236,128.400 151.778,128.400 152.543 C 128.400 153.308,128.570 153.993,128.778 154.067 C 129.340 154.265,129.414 159.946,128.861 160.499 C 128.608 160.752,128.400 161.295,128.400 161.704 C 128.400 162.113,128.243 162.350,128.050 162.231 C 127.858 162.112,127.615 162.866,127.510 163.907 C 127.405 164.948,126.941 166.610,126.478 167.600 C 122.643 175.809,120.471 184.601,119.602 195.433 C 119.204 200.399,119.251 201.810,120.195 212.921 C 120.339 214.620,120.268 215.166,119.928 214.956 C 119.602 214.754,119.559 214.896,119.786 215.434 C 120.268 216.583,120.743 219.749,120.494 220.162 C 120.374 220.361,120.484 220.395,120.738 220.238 C 121.061 220.039,121.200 220.489,121.200 221.734 C 121.200 222.948,121.391 223.588,121.800 223.745 C 122.239 223.913,122.397 224.594,122.390 226.287 L 122.379 228.600 120.344 229.981 C 117.730 231.755,116.474 232.400,115.634 232.400 C 115.263 232.400,114.778 232.582,114.555 232.805 C 114.332 233.028,113.285 233.248,112.228 233.294 C 111.105 233.343,110.225 233.591,110.110 233.889 C 109.803 234.689,101.255 234.608,100.946 233.802 C 100.819 233.474,100.561 233.301,100.371 233.418 C 99.824 233.756,95.992 233.137,96.231 232.749 C 96.350 232.557,95.877 232.400,95.181 232.400 C 94.378 232.400,93.361 231.961,92.400 231.200 C 91.567 230.540,90.705 230.000,90.485 230.000 C 90.265 230.000,89.982 229.730,89.855 229.400 C 89.729 229.070,89.339 228.800,88.989 228.800 C 88.639 228.800,88.440 228.658,88.548 228.485 C 88.655 228.312,88.268 228.130,87.689 228.083 C 87.109 228.035,86.456 227.816,86.238 227.598 C 86.019 227.379,84.987 227.200,83.944 227.200 C 82.901 227.200,81.936 227.020,81.800 226.800 C 81.664 226.580,80.314 226.400,78.800 226.400 C 77.286 226.400,75.936 226.580,75.800 226.800 C 75.664 227.020,74.674 227.200,73.600 227.200 C 72.526 227.200,71.536 227.380,71.400 227.600 C 71.264 227.820,70.801 228.000,70.371 228.000 C 69.941 228.000,69.277 228.165,68.895 228.366 C 68.513 228.568,67.570 229.023,66.800 229.377 C 65.194 230.117,64.309 230.639,62.549 231.882 C 61.862 232.368,61.172 232.638,61.016 232.483 C 60.861 232.327,60.793 232.470,60.867 232.800 C 60.940 233.130,60.775 233.355,60.500 233.300 C 60.225 233.245,60.000 233.388,60.000 233.618 C 60.000 234.161,58.161 236.000,57.618 236.000 C 57.388 236.000,57.245 236.225,57.300 236.500 C 57.355 236.775,57.162 236.951,56.870 236.890 C 56.579 236.830,56.436 236.935,56.553 237.123 C 56.669 237.312,56.323 238.117,55.782 238.912 C 55.242 239.707,54.800 240.637,54.800 240.979 C 54.800 241.320,54.519 241.600,54.176 241.600 C 53.833 241.600,53.655 241.765,53.780 241.968 C 53.905 242.170,53.781 242.575,53.504 242.868 C 53.227 243.160,52.982 243.625,52.960 243.900 C 52.938 244.175,52.893 244.771,52.860 245.224 C 52.827 245.677,52.620 245.936,52.400 245.800 C 52.158 245.650,51.980 246.273,51.950 247.376 C 51.886 249.710,51.860 249.873,51.500 250.233 C 51.050 250.684,51.139 256.715,51.600 257.000 C 51.820 257.136,52.000 258.047,52.000 259.024 C 52.000 260.001,52.180 260.800,52.400 260.800 C 52.620 260.800,52.800 261.318,52.800 261.951 C 52.800 262.584,53.059 263.317,53.376 263.580 C 53.693 263.843,53.854 264.314,53.735 264.626 C 53.615 264.938,53.806 265.304,54.158 265.439 C 54.511 265.575,54.800 266.026,54.800 266.443 C 54.800 266.859,54.980 267.200,55.200 267.200 C 55.420 267.200,55.600 267.444,55.600 267.742 C 55.600 268.040,56.376 269.083,57.325 270.059 C 58.274 271.036,59.169 272.142,59.313 272.517 C 59.457 272.893,59.784 273.200,60.041 273.200 C 60.297 273.200,60.797 273.532,61.153 273.937 C 62.035 274.943,65.045 276.800,65.792 276.800 C 66.126 276.800,66.400 276.980,66.400 277.200 C 66.400 277.420,66.751 277.600,67.180 277.600 C 67.609 277.600,68.144 277.915,68.368 278.300 C 68.592 278.685,68.781 278.878,68.788 278.728 C 68.795 278.578,69.385 278.645,70.100 278.877 C 73.033 279.826,82.615 280.672,82.164 279.941 C 82.048 279.754,83.033 279.600,84.353 279.600 C 85.673 279.600,86.864 279.420,87.000 279.200 C 87.136 278.980,87.665 278.800,88.175 278.800 C 88.685 278.800,89.326 278.530,89.600 278.200 C 89.874 277.870,90.348 277.600,90.654 277.600 C 91.171 277.600,92.742 276.859,93.200 276.399 C 93.310 276.289,93.925 275.929,94.567 275.599 C 95.836 274.948,101.200 269.822,101.200 269.261 C 101.200 268.720,103.088 266.822,103.358 267.091 C 103.491 267.224,103.600 266.973,103.600 266.532 C 103.600 265.672,106.558 262.291,106.959 262.693 C 107.092 262.825,107.200 262.707,107.200 262.431 C 107.200 261.901,113.406 255.600,113.928 255.600 C 114.096 255.600,114.901 254.970,115.718 254.200 C 116.534 253.430,117.572 252.800,118.025 252.800 C 118.477 252.800,118.736 252.620,118.600 252.400 C 118.464 252.180,118.633 252.000,118.976 252.000 C 119.319 252.000,119.600 251.809,119.600 251.576 C 119.600 251.343,119.759 251.251,119.953 251.371 C 120.147 251.491,120.761 251.232,121.316 250.795 C 121.872 250.358,122.523 250.000,122.763 250.000 C 123.003 250.000,123.200 249.820,123.200 249.600 C 123.200 249.380,123.549 249.200,123.976 249.200 C 124.403 249.200,124.864 249.020,125.000 248.800 C 125.136 248.580,125.856 248.400,126.600 248.400 C 127.344 248.400,128.064 248.220,128.200 248.000 C 128.336 247.780,129.127 247.600,129.957 247.600 C 130.787 247.600,131.592 247.475,131.745 247.322 C 132.357 246.710,133.133 246.934,133.546 247.842 C 133.786 248.369,134.167 248.800,134.391 248.800 C 134.616 248.800,134.801 249.025,134.802 249.300 C 134.803 249.575,135.348 250.380,136.013 251.090 C 136.678 251.799,137.217 252.474,137.211 252.590 C 137.205 252.705,137.283 252.755,137.384 252.700 C 137.485 252.645,137.980 253.155,138.484 253.834 C 139.728 255.510,140.659 256.400,141.167 256.400 C 141.649 256.400,142.429 257.008,145.399 259.702 C 146.553 260.748,148.015 262.001,148.648 262.488 C 149.282 262.974,149.890 263.475,150.000 263.599 C 150.110 263.724,151.190 264.537,152.400 265.406 C 153.610 266.275,154.660 267.124,154.733 267.293 C 154.807 267.462,155.044 267.600,155.261 267.600 C 155.478 267.600,156.408 268.117,157.328 268.749 C 159.608 270.317,165.204 273.225,168.600 274.607 C 170.140 275.234,171.781 276.163,172.247 276.673 C 172.712 277.183,173.545 277.600,174.098 277.600 C 174.650 277.600,175.310 277.851,175.565 278.158 C 176.000 278.682,176.852 278.906,180.503 279.458 C 181.329 279.582,182.105 279.845,182.226 280.042 C 182.348 280.239,183.416 280.400,184.600 280.400 C 185.784 280.400,186.864 280.580,187.000 280.800 C 187.136 281.020,188.246 281.200,189.467 281.200 L 191.687 281.200 191.359 280.100 C 189.135 272.633,200.143 267.676,213.342 270.201 C 219.813 271.440,222.205 273.656,220.372 276.714 C 219.468 278.220,219.050 280.400,219.664 280.400 C 219.849 280.400,220.000 280.249,220.000 280.064 C 220.000 279.579,221.869 278.800,223.031 278.800 C 223.578 278.800,224.129 278.530,224.255 278.200 C 224.397 277.830,225.005 277.600,225.843 277.600 C 226.589 277.600,227.200 277.420,227.200 277.200 C 227.200 276.980,227.740 276.800,228.400 276.800 C 229.060 276.800,229.600 276.620,229.600 276.400 C 229.600 276.180,229.926 276.000,230.325 276.000 C 231.414 276.000,235.148 274.094,236.134 273.035 C 236.610 272.524,238.780 271.083,240.955 269.834 C 247.354 266.158,253.169 261.473,258.996 255.300 C 260.502 253.705,262.053 252.400,262.444 252.400 C 262.835 252.400,263.474 251.860,263.864 251.200 C 264.254 250.540,264.714 250.000,264.886 250.000 C 265.059 250.000,265.205 249.775,265.211 249.500 C 265.217 249.225,265.763 248.470,266.423 247.821 C 267.084 247.173,267.728 246.228,267.856 245.721 C 267.983 245.215,268.247 244.800,268.443 244.800 C 268.640 244.800,268.800 244.519,268.800 244.176 C 268.800 243.833,268.980 243.664,269.200 243.800 C 269.428 243.941,269.600 243.596,269.600 243.000 C 269.600 242.404,269.772 242.059,270.000 242.200 C 270.220 242.336,270.400 242.185,270.400 241.864 C 270.400 241.525,269.549 240.974,268.372 240.551 C 261.675 238.143,260.920 230.074,266.707 222.755 C 270.455 218.015,276.094 215.086,277.400 217.200 C 278.607 219.153,280.400 216.609,280.400 212.944 C 280.400 211.571,280.580 210.336,280.800 210.200 C 281.049 210.046,281.200 206.287,281.200 200.249 C 281.200 190.661,281.211 190.535,282.106 189.772 C 283.381 188.684,286.460 187.297,288.000 187.117 C 288.550 187.053,289.107 186.854,289.239 186.676 C 289.370 186.498,290.132 186.318,290.932 186.276 C 291.732 186.234,292.474 185.975,292.581 185.700 C 292.710 185.368,293.691 185.200,295.507 185.200 C 297.010 185.200,298.428 185.012,298.658 184.782 C 299.544 183.896,318.100 184.826,319.205 185.812 C 320.004 186.525,328.940 186.420,329.670 185.690 C 329.940 185.420,330.756 185.200,331.485 185.200 C 332.214 185.200,333.123 185.035,333.505 184.834 C 333.887 184.632,334.830 184.194,335.600 183.860 C 336.370 183.526,337.397 182.881,337.883 182.426 C 338.369 181.972,338.935 181.600,339.142 181.600 C 339.348 181.600,340.111 180.925,340.838 180.100 C 341.564 179.275,342.316 178.649,342.509 178.710 C 342.702 178.770,342.754 178.650,342.626 178.442 C 342.498 178.234,342.655 177.802,342.975 177.482 C 343.882 176.575,345.200 174.056,345.200 173.231 C 345.200 172.821,345.452 172.389,345.759 172.271 C 346.596 171.950,347.508 163.245,346.754 162.774 C 346.555 162.650,346.338 161.882,346.271 161.069 C 346.204 160.255,345.936 159.376,345.675 159.115 C 345.414 158.854,345.196 158.361,345.191 158.020 C 345.186 157.679,344.830 156.950,344.400 156.400 C 343.970 155.850,343.614 155.251,343.609 155.069 C 343.595 154.565,340.270 151.623,339.700 151.611 C 339.425 151.605,339.200 151.420,339.200 151.200 C 339.200 150.980,338.930 150.800,338.600 150.800 C 338.270 150.800,338.000 150.657,338.000 150.483 C 338.000 150.308,336.965 149.840,335.700 149.443 C 334.435 149.045,333.087 148.558,332.705 148.360 C 330.434 147.182,315.914 148.500,317.081 149.778 C 317.259 149.973,317.083 150.014,316.685 149.870 C 316.237 149.709,315.885 149.835,315.742 150.207 C 315.617 150.533,315.264 150.800,314.957 150.800 C 314.651 150.800,314.400 150.941,314.400 151.112 C 314.400 151.284,313.844 151.635,313.163 151.891 C 312.472 152.152,312.042 152.544,312.187 152.779 C 312.330 153.011,312.257 153.200,312.024 153.200 C 311.791 153.200,311.600 153.427,311.600 153.705 C 311.600 153.983,311.153 154.546,310.608 154.955 C 310.062 155.365,309.713 155.859,309.833 156.053 C 309.953 156.247,309.769 156.514,309.425 156.646 C 309.081 156.778,308.800 157.277,308.800 157.754 C 308.800 158.232,308.440 158.883,308.000 159.200 C 307.560 159.517,307.200 160.017,307.200 160.312 C 307.200 160.606,307.020 160.736,306.800 160.600 C 306.580 160.464,306.400 160.547,306.400 160.783 C 306.400 161.020,305.759 161.836,304.976 162.597 C 303.182 164.339,300.944 165.950,301.390 165.179 C 301.573 164.860,301.201 165.050,300.562 165.600 C 299.095 166.862,297.783 167.600,297.005 167.600 C 296.672 167.600,296.400 167.780,296.400 168.000 C 296.400 168.220,295.938 168.400,295.374 168.400 C 294.809 168.400,294.025 168.573,293.631 168.783 C 293.237 168.994,291.989 169.219,290.859 169.283 C 289.545 169.358,288.803 169.580,288.802 169.900 C 288.800 170.261,287.852 170.400,285.400 170.400 C 283.530 170.400,282.000 170.233,282.000 170.029 C 282.000 169.825,281.010 169.534,279.800 169.383 C 278.590 169.232,277.600 168.949,277.600 168.754 C 277.600 168.559,277.234 168.400,276.786 168.400 C 275.721 168.400,274.000 167.260,274.000 166.554 C 274.000 166.249,273.820 166.000,273.600 166.000 C 273.380 166.000,273.200 165.561,273.200 165.024 C 273.200 164.487,273.020 163.936,272.800 163.800 C 272.580 163.664,272.400 163.193,272.400 162.753 C 272.400 162.313,272.220 162.064,272.000 162.200 C 271.773 162.340,271.600 162.004,271.600 161.424 C 271.600 160.861,271.420 160.400,271.200 160.400 C 270.980 160.400,270.800 160.139,270.800 159.820 C 270.800 159.501,270.575 159.096,270.300 158.920 C 270.025 158.744,269.603 158.240,269.362 157.800 C 268.263 155.789,267.751 154.985,267.100 154.245 C 266.715 153.807,266.400 153.213,266.400 152.925 C 266.400 152.636,266.130 152.400,265.800 152.400 C 265.470 152.400,265.200 152.164,265.200 151.876 C 265.200 151.372,263.276 148.937,259.968 145.255 C 259.106 144.295,258.400 143.350,258.400 143.155 C 258.400 142.960,258.201 142.800,257.958 142.800 C 257.714 142.800,257.161 142.350,256.729 141.800 C 256.296 141.250,255.624 140.800,255.236 140.800 C 254.848 140.800,253.016 139.606,251.165 138.146 C 247.482 135.240,241.876 131.428,239.466 130.189 C 238.623 129.755,237.363 128.854,236.666 128.187 C 235.417 126.991,232.917 125.600,232.016 125.600 C 231.761 125.600,231.640 125.458,231.748 125.285 C 231.855 125.112,231.460 124.930,230.871 124.881 C 230.282 124.833,229.740 124.615,229.667 124.397 C 229.593 124.178,229.224 124.000,228.847 124.000 C 228.469 124.000,227.918 123.775,227.621 123.500 C 227.183 123.093,227.145 123.112,227.418 123.600 C 227.697 124.098,227.649 124.115,227.136 123.700 C 226.797 123.426,226.042 123.161,225.460 123.113 C 224.877 123.065,224.400 122.885,224.400 122.713 C 224.400 122.541,223.770 122.400,223.000 122.400 C 222.148 122.400,221.599 122.204,221.598 121.900 C 221.597 121.599,220.957 121.364,219.987 121.308 C 219.103 121.258,218.035 121.033,217.616 120.808 C 217.196 120.584,215.941 120.400,214.826 120.400 C 213.712 120.400,212.800 120.220,212.800 120.000 C 212.800 119.780,212.575 119.645,212.300 119.700 C 212.025 119.755,211.845 119.575,211.900 119.300 C 211.955 119.025,211.817 118.800,211.592 118.800 C 211.148 118.800,211.341 119.934,212.274 122.800 C 213.979 128.039,210.680 131.616,201.757 134.201 C 188.621 138.008,174.322 128.627,183.534 122.246 C 184.450 121.611,185.200 120.936,185.200 120.746 C 185.200 120.278,183.056 120.305,182.580 120.778 C 182.371 120.986,181.360 121.211,180.334 121.278 C 179.307 121.345,178.497 121.580,178.534 121.800 C 178.570 122.020,177.970 122.258,177.200 122.329 C 176.430 122.399,175.629 122.624,175.420 122.829 C 175.211 123.033,174.637 123.200,174.144 123.200 C 173.651 123.200,173.136 123.380,173.000 123.600 C 172.864 123.820,172.349 124.000,171.856 124.000 C 171.363 124.000,170.781 124.179,170.562 124.398 C 170.344 124.616,169.678 124.836,169.082 124.885 C 168.487 124.934,168.000 125.200,168.000 125.475 C 168.000 125.750,167.753 125.880,167.452 125.764 C 167.150 125.649,166.623 125.834,166.280 126.177 C 165.937 126.520,165.495 126.800,165.296 126.800 C 165.098 126.800,164.064 127.241,162.998 127.781 C 161.933 128.320,160.885 128.652,160.669 128.519 C 160.453 128.386,160.395 128.468,160.539 128.702 C 160.689 128.943,160.066 129.510,159.101 130.012 C 155.186 132.048,154.571 132.418,153.982 133.092 C 152.601 134.673,150.605 135.245,149.684 134.324 C 149.422 134.062,148.981 133.810,148.704 133.764 C 147.766 133.608,146.010 132.523,146.273 132.261 C 146.416 132.117,146.310 132.000,146.036 132.000 C 145.467 132.000,140.013 126.788,140.005 126.238 C 140.002 126.039,139.550 125.286,139.000 124.564 C 138.450 123.843,138.000 123.061,138.000 122.827 C 138.000 122.592,137.820 122.400,137.600 122.400 C 137.380 122.400,137.200 121.939,137.200 121.376 C 137.200 120.796,137.027 120.460,136.800 120.600 C 136.580 120.736,136.400 120.477,136.400 120.024 C 136.400 119.571,136.220 119.200,136.000 119.200 C 135.780 119.200,135.600 118.761,135.600 118.224 C 135.600 117.687,135.420 117.136,135.200 117.000 C 134.980 116.864,134.800 116.416,134.800 116.005 C 134.800 115.594,134.530 114.987,134.200 114.657 C 133.870 114.327,133.600 113.515,133.600 112.852 C 133.600 112.189,133.420 111.536,133.200 111.400 C 132.977 111.262,132.800 109.404,132.800 107.200 C 132.800 104.996,132.977 103.138,133.200 103.000 C 133.433 102.856,133.600 100.604,133.600 97.600 C 133.600 94.596,133.433 92.344,133.200 92.200 C 132.980 92.064,132.800 91.254,132.800 90.400 C 132.800 89.546,132.620 88.736,132.400 88.600 C 132.180 88.464,132.000 87.941,132.000 87.438 C 132.000 86.339,130.891 84.000,130.371 84.000 C 130.167 84.000,130.000 83.640,130.000 83.200 C 130.000 82.760,129.850 82.400,129.668 82.400 C 129.485 82.400,129.084 81.905,128.778 81.300 C 128.012 79.788,126.127 77.606,125.838 77.896 C 125.707 78.026,125.600 77.823,125.600 77.443 C 125.600 77.063,125.420 76.864,125.200 77.000 C 124.980 77.136,124.800 77.073,124.800 76.860 C 124.800 76.648,123.990 75.962,123.001 75.337 C 122.011 74.712,121.201 73.945,121.201 73.633 C 121.200 73.322,121.085 73.182,120.944 73.323 C 120.803 73.464,120.128 73.288,119.444 72.932 C 117.096 71.712,116.809 71.600,116.029 71.600 C 115.599 71.600,115.136 71.420,115.000 71.200 C 114.864 70.980,114.123 70.800,113.353 70.800 C 112.396 70.800,112.043 70.654,112.238 70.338 C 112.419 70.046,112.348 69.985,112.044 70.173 C 111.781 70.336,111.348 70.296,111.082 70.084 C 110.343 69.493,101.267 69.590,100.662 70.195 M191.894 148.853 C 208.707 152.854,217.441 170.319,210.270 185.600 C 202.340 202.498,179.196 205.937,165.844 192.201 C 164.057 190.362,160.800 185.525,160.800 184.710 C 160.800 184.407,160.642 183.989,160.449 183.780 C 158.376 181.534,158.005 171.621,159.806 166.548 C 162.815 158.067,168.970 151.941,176.800 149.633 C 177.790 149.342,179.050 148.959,179.600 148.783 C 181.131 148.293,189.747 148.343,191.894 148.853 M174.633 212.842 C 180.065 213.856,185.200 218.107,185.200 221.589 C 185.200 222.009,185.380 222.464,185.600 222.600 C 185.820 222.736,186.000 224.446,186.000 226.400 C 186.000 228.354,185.820 230.064,185.600 230.200 C 185.380 230.336,185.200 230.763,185.200 231.148 C 185.200 233.358,182.032 237.326,179.194 238.671 C 168.818 243.591,158.637 237.501,158.653 226.384 C 158.664 218.111,163.034 213.493,171.833 212.451 C 172.072 212.423,173.332 212.599,174.633 212.842 M225.964 215.465 C 227.733 216.168,229.334 216.932,229.600 217.200 C 229.710 217.311,230.312 217.666,230.939 217.989 C 237.299 221.272,241.610 233.661,238.805 240.600 C 235.950 247.664,231.705 251.698,224.772 253.939 C 223.016 254.506,215.342 254.554,215.000 254.000 C 214.864 253.780,214.401 253.600,213.971 253.600 C 213.178 253.600,212.872 253.479,210.430 252.193 C 205.923 249.821,201.932 244.837,200.345 239.600 C 199.670 237.370,199.658 230.182,200.329 229.511 C 200.588 229.252,200.800 228.732,200.800 228.354 C 200.800 226.018,204.907 220.519,208.426 218.142 C 213.669 214.602,220.984 213.486,225.964 215.465 " stroke="none" fill="#4cb34c" fill-rule="evenodd"></path><path id="path1" d="M181.900 149.517 C 180.195 149.581,178.800 149.792,178.800 149.985 C 178.800 150.178,178.221 150.464,177.513 150.619 C 176.805 150.775,175.950 151.039,175.613 151.207 C 175.276 151.375,174.100 151.936,173.000 152.454 C 171.900 152.972,170.802 153.576,170.559 153.798 C 169.926 154.376,166.340 157.363,165.994 157.600 C 165.561 157.897,162.252 163.215,161.638 164.600 C 161.346 165.260,160.948 166.113,160.753 166.495 C 160.559 166.877,160.400 167.811,160.400 168.571 C 160.400 169.331,160.220 170.064,160.000 170.200 C 159.777 170.338,159.600 172.196,159.600 174.400 C 159.600 176.604,159.777 178.462,160.000 178.600 C 160.220 178.736,160.400 179.546,160.400 180.400 C 160.400 181.254,160.580 182.064,160.800 182.200 C 161.020 182.336,161.200 182.887,161.200 183.424 C 161.200 183.961,161.380 184.400,161.600 184.400 C 161.820 184.400,162.000 184.608,162.000 184.862 C 162.000 185.116,162.450 185.914,163.000 186.636 C 163.550 187.357,164.000 188.139,164.000 188.373 C 164.000 188.608,164.180 188.800,164.400 188.800 C 164.620 188.800,164.800 188.986,164.800 189.212 C 164.800 189.737,169.124 194.014,170.421 194.772 C 174.237 197.003,176.150 198.000,176.615 198.000 C 176.911 198.000,177.264 198.180,177.400 198.400 C 177.536 198.620,178.256 198.800,179.000 198.800 C 179.744 198.800,180.464 198.980,180.600 199.200 C 180.743 199.432,182.930 199.600,185.800 199.600 C 188.670 199.600,190.857 199.432,191.000 199.200 C 191.136 198.980,191.957 198.800,192.824 198.800 C 193.691 198.800,194.400 198.620,194.400 198.400 C 194.400 198.180,194.850 198.000,195.400 198.000 C 195.950 198.000,196.400 197.838,196.400 197.639 C 196.400 197.441,196.895 197.086,197.500 196.851 C 204.064 194.303,209.941 186.768,211.267 179.200 C 211.951 175.299,212.100 172.340,211.638 171.878 C 211.397 171.637,211.200 170.587,211.200 169.544 C 211.200 168.501,211.020 167.536,210.800 167.400 C 210.580 167.264,210.400 166.831,210.400 166.438 C 210.400 165.021,206.211 158.145,204.528 156.800 C 204.115 156.470,202.972 155.559,201.988 154.775 C 200.171 153.328,195.292 150.800,194.314 150.800 C 194.019 150.800,193.423 150.555,192.989 150.256 C 192.132 149.664,187.020 149.324,181.900 149.517 M168.800 213.547 C 160.849 215.288,156.715 224.544,160.331 232.509 C 164.514 241.723,179.478 242.082,183.927 233.075 C 189.281 222.235,180.557 210.972,168.800 213.547 M214.363 215.977 C 211.358 216.922,209.917 217.740,206.887 220.219 C 205.464 221.383,202.000 226.017,202.000 226.756 C 202.000 227.006,201.832 227.523,201.627 227.905 C 199.148 232.514,200.441 241.056,204.364 246.000 C 206.774 249.036,210.990 252.400,212.386 252.400 C 212.620 252.400,213.123 252.564,213.505 252.765 C 220.660 256.521,232.975 251.456,236.919 243.135 C 244.137 227.904,230.115 211.021,214.363 215.977 " stroke="none" fill="#d1e9ba" fill-rule="evenodd"></path><path id="path2" d="M192.302 29.231 C 191.918 29.455,191.037 29.709,190.344 29.797 C 189.651 29.885,188.894 30.146,188.662 30.378 C 188.430 30.610,187.826 30.800,187.320 30.800 C 186.814 30.800,186.398 30.935,186.395 31.100 C 186.393 31.265,185.701 31.731,184.857 32.134 C 184.013 32.538,182.865 33.258,182.305 33.734 C 181.745 34.211,180.850 34.960,180.316 35.400 C 179.782 35.840,179.042 36.645,178.672 37.189 C 178.303 37.733,178.000 38.013,178.000 37.811 C 178.000 37.610,177.578 38.017,177.061 38.717 C 176.545 39.417,175.976 39.857,175.797 39.695 C 175.618 39.533,175.585 39.598,175.723 39.841 C 175.861 40.084,175.716 40.624,175.400 41.041 C 175.084 41.458,174.820 42.096,174.813 42.457 C 174.806 42.819,174.504 43.228,174.143 43.367 C 173.781 43.505,173.585 43.719,173.707 43.840 C 173.829 43.962,173.495 45.043,172.964 46.242 C 172.434 47.442,172.000 49.012,172.000 49.731 C 172.000 50.451,171.775 51.282,171.500 51.579 C 171.093 52.017,171.112 52.055,171.600 51.782 C 172.112 51.496,172.121 51.543,171.666 52.105 C 170.659 53.348,172.002 63.580,173.471 65.844 C 173.772 66.308,173.908 66.973,173.774 67.323 C 173.520 67.986,174.654 70.377,175.473 70.905 C 176.031 71.264,177.200 73.507,177.200 74.219 C 177.200 74.491,177.470 74.818,177.800 74.945 C 178.130 75.071,178.400 75.541,178.400 75.987 C 178.400 76.434,178.580 76.800,178.800 76.800 C 179.020 76.800,179.200 77.250,179.200 77.800 C 179.200 78.350,179.380 78.800,179.600 78.800 C 179.820 78.800,180.000 79.162,180.000 79.605 C 180.000 80.048,180.167 80.723,180.371 81.105 C 180.575 81.487,180.847 82.070,180.975 82.400 C 181.104 82.730,181.554 83.540,181.975 84.200 C 182.397 84.860,182.755 85.805,182.771 86.300 C 182.787 86.795,182.980 87.200,183.200 87.200 C 183.420 87.200,183.600 87.650,183.600 88.200 C 183.600 88.750,183.780 89.200,184.000 89.200 C 184.220 89.200,184.400 89.622,184.400 90.139 C 184.400 90.985,184.998 92.587,186.026 94.495 C 186.232 94.877,186.400 95.642,186.400 96.195 C 186.400 96.748,186.580 97.200,186.800 97.200 C 187.020 97.200,187.200 97.884,187.200 98.720 C 187.200 99.556,187.362 100.411,187.559 100.620 C 188.091 101.183,188.448 104.017,188.660 109.366 C 188.883 114.984,188.408 117.106,186.500 119.018 C 185.785 119.734,185.200 120.494,185.200 120.706 C 185.200 120.918,184.450 121.611,183.534 122.246 C 174.322 128.627,188.621 138.008,201.757 134.201 C 210.684 131.614,213.990 128.028,212.266 122.800 C 211.940 121.810,211.544 120.370,211.386 119.600 C 211.229 118.830,210.930 118.092,210.723 117.960 C 210.516 117.828,210.301 117.409,210.245 117.028 C 210.189 116.647,209.963 116.215,209.742 116.068 C 209.521 115.921,209.103 114.900,208.811 113.800 C 208.520 112.700,208.129 111.629,207.941 111.420 C 207.753 111.211,207.600 110.656,207.600 110.187 C 207.600 109.717,207.475 109.209,207.323 109.056 C 207.171 108.904,206.990 108.379,206.921 107.890 C 206.532 105.130,206.415 104.655,206.026 104.266 C 205.314 103.554,205.468 95.336,206.200 95.055 C 206.622 94.893,206.800 94.235,206.800 92.836 C 206.800 91.742,206.980 90.736,207.200 90.600 C 207.420 90.464,207.600 89.913,207.600 89.376 C 207.600 88.839,207.780 88.400,208.000 88.400 C 208.220 88.400,208.400 88.046,208.400 87.614 C 208.400 86.622,209.632 84.000,210.098 84.000 C 210.290 84.000,210.336 83.820,210.200 83.600 C 210.064 83.380,210.173 83.200,210.443 83.200 C 210.713 83.200,210.820 83.087,210.682 82.949 C 210.423 82.690,212.702 79.104,213.277 78.867 C 213.455 78.793,213.600 78.478,213.600 78.167 C 213.600 77.855,213.758 77.600,213.952 77.600 C 214.145 77.600,215.045 76.880,215.952 76.000 C 216.858 75.121,217.601 74.536,217.603 74.700 C 217.608 75.276,222.385 69.793,223.089 68.403 C 223.480 67.631,223.935 66.940,224.100 66.867 C 224.265 66.793,224.400 66.399,224.400 65.990 C 224.400 65.582,224.580 65.136,224.800 65.000 C 225.020 64.864,225.200 64.349,225.200 63.856 C 225.200 63.363,225.377 62.783,225.594 62.566 C 226.391 61.769,227.402 53.356,226.792 52.600 C 226.614 52.380,226.397 51.343,226.309 50.295 C 226.221 49.247,225.936 48.176,225.675 47.915 C 225.414 47.654,225.200 46.947,225.200 46.344 C 225.200 45.741,225.020 45.136,224.800 45.000 C 224.580 44.864,224.400 44.403,224.400 43.976 C 224.400 43.549,224.220 43.200,224.000 43.200 C 223.780 43.200,223.600 42.992,223.600 42.738 C 223.600 42.484,223.150 41.686,222.600 40.964 C 222.050 40.243,221.600 39.542,221.600 39.405 C 221.600 39.268,221.061 38.581,220.402 37.878 C 219.743 37.175,219.203 36.465,219.202 36.300 C 219.201 36.135,219.002 36.000,218.760 36.000 C 218.519 36.000,217.831 35.476,217.233 34.836 C 216.015 33.531,211.126 30.800,210.010 30.800 C 209.611 30.800,209.192 30.557,209.078 30.259 C 208.964 29.962,208.360 29.737,207.735 29.759 C 207.111 29.782,206.362 29.575,206.071 29.300 C 205.413 28.677,193.357 28.616,192.302 29.231 M179.800 148.820 C 179.261 149.065,179.654 149.105,181.000 148.941 C 182.100 148.807,183.075 148.631,183.167 148.549 C 183.517 148.236,180.561 148.474,179.800 148.820 M188.033 148.544 C 188.125 148.623,189.100 148.791,190.200 148.918 C 191.487 149.067,191.915 149.026,191.400 148.803 C 190.636 148.472,187.686 148.245,188.033 148.544 M176.119 149.762 C 175.415 150.018,174.716 150.351,174.565 150.502 C 174.263 150.804,176.036 150.316,177.600 149.666 C 178.962 149.100,177.715 149.181,176.119 149.762 M193.400 149.600 C 194.501 150.073,194.892 150.073,194.600 149.600 C 194.464 149.380,193.958 149.213,193.476 149.228 C 192.631 149.255,192.629 149.269,193.400 149.600 M196.346 150.616 C 197.086 150.937,197.806 151.194,197.946 151.186 C 198.466 151.157,196.176 150.028,195.600 150.030 C 195.270 150.031,195.606 150.294,196.346 150.616 M198.400 151.355 C 198.400 151.590,202.330 154.001,202.706 153.997 C 203.055 153.994,201.062 152.610,199.500 151.771 C 198.895 151.446,198.400 151.259,198.400 151.355 M167.045 155.244 C 165.302 156.779,161.600 161.516,161.600 162.214 C 161.600 162.385,162.487 161.262,163.571 159.718 C 164.656 158.174,166.411 156.167,167.471 155.258 C 168.532 154.349,169.290 153.604,169.156 153.603 C 169.022 153.601,168.072 154.340,167.045 155.244 M202.842 154.500 C 202.938 154.555,204.003 155.500,205.208 156.600 L 207.400 158.600 205.415 156.500 C 204.323 155.345,203.258 154.400,203.048 154.400 C 202.838 154.400,202.745 154.445,202.842 154.500 M208.496 160.768 C 209.212 161.850,209.861 162.673,209.938 162.596 C 210.100 162.433,207.650 158.800,207.378 158.800 C 207.277 158.800,207.780 159.685,208.496 160.768 M159.239 168.060 C 158.998 168.753,158.822 169.968,158.850 170.760 C 158.894 172.032,158.936 171.967,159.208 170.200 C 159.378 169.100,159.645 167.885,159.801 167.500 C 159.958 167.115,159.994 166.800,159.882 166.800 C 159.770 166.800,159.481 167.367,159.239 168.060 M211.656 168.000 C 211.656 168.330,211.811 168.960,212.000 169.400 C 212.217 169.904,212.344 169.978,212.344 169.600 C 212.344 169.270,212.189 168.640,212.000 168.200 C 211.783 167.696,211.656 167.622,211.656 168.000 M212.348 175.000 C 212.209 177.640,211.986 180.250,211.852 180.800 C 211.718 181.350,211.880 180.990,212.213 180.000 C 212.630 178.757,212.783 176.962,212.708 174.200 L 212.600 170.200 212.348 175.000 M158.501 174.600 C 158.505 175.480,158.587 175.793,158.683 175.295 C 158.779 174.798,158.775 174.078,158.675 173.695 C 158.575 173.313,158.496 173.720,158.501 174.600 M158.880 178.400 C 158.870 179.170,159.119 180.430,159.434 181.200 C 159.954 182.470,159.983 182.488,159.743 181.400 C 159.598 180.740,159.349 179.480,159.190 178.600 L 158.900 177.000 158.880 178.400 M160.800 184.977 C 160.800 185.273,162.467 188.000,162.648 188.000 C 162.740 188.000,162.449 187.280,162.000 186.400 C 161.284 184.996,160.800 184.422,160.800 184.977 M207.500 189.608 C 206.072 191.435,205.438 192.652,206.500 191.529 C 207.438 190.537,209.281 187.948,209.140 187.819 C 209.063 187.749,208.325 188.554,207.500 189.608 M163.535 189.400 C 164.692 191.094,166.403 192.993,166.385 192.562 C 166.376 192.363,165.547 191.300,164.542 190.200 C 163.537 189.100,163.084 188.740,163.535 189.400 M203.600 194.045 C 202.610 194.949,202.159 195.443,202.597 195.144 C 203.630 194.439,205.860 192.404,205.600 192.403 C 205.490 192.403,204.590 193.141,203.600 194.045 M167.020 193.309 C 167.128 193.588,167.617 194.062,168.108 194.361 C 168.959 194.880,168.955 194.856,168.030 193.853 C 166.948 192.677,166.734 192.562,167.020 193.309 M170.141 195.719 C 171.385 196.783,174.427 198.507,174.656 198.277 C 174.735 198.199,174.304 197.885,173.699 197.579 C 173.095 197.274,171.790 196.511,170.800 195.884 C 169.268 194.913,169.170 194.889,170.141 195.719 M199.000 197.035 C 197.680 197.774,196.741 198.383,196.913 198.389 C 197.432 198.407,201.124 196.446,201.395 196.008 C 201.708 195.501,201.860 195.436,199.000 197.035 M181.600 200.470 C 182.590 200.619,184.480 200.741,185.800 200.741 C 187.120 200.741,189.010 200.619,190.000 200.470 C 191.077 200.309,189.391 200.200,185.800 200.200 C 182.209 200.200,180.523 200.309,181.600 200.470 M218.700 214.682 C 219.195 214.778,220.005 214.778,220.500 214.682 C 220.995 214.587,220.590 214.509,219.600 214.509 C 218.610 214.509,218.205 214.587,218.700 214.682 M181.840 216.377 C 182.522 217.160,183.377 218.245,183.740 218.789 C 184.103 219.333,184.400 219.571,184.400 219.317 C 184.400 219.063,183.545 217.978,182.500 216.905 C 181.455 215.832,181.158 215.595,181.840 216.377 M271.308 218.212 C 263.636 223.240,260.402 234.263,265.264 238.811 C 267.259 240.677,273.427 242.050,274.200 240.800 C 274.336 240.580,275.067 240.400,275.824 240.400 C 276.581 240.400,277.200 240.580,277.200 240.800 C 277.200 241.020,278.111 241.200,279.224 241.200 C 280.471 241.200,281.152 241.353,281.000 241.600 C 280.864 241.820,281.033 242.023,281.376 242.050 C 282.421 242.134,282.508 242.166,285.500 243.575 C 287.095 244.327,288.400 245.090,288.400 245.271 C 288.400 245.452,288.625 245.602,288.900 245.604 C 289.175 245.606,290.190 246.236,291.156 247.004 C 292.122 247.772,293.168 248.400,293.480 248.400 C 293.792 248.400,293.936 248.580,293.800 248.800 C 293.664 249.020,293.833 249.200,294.176 249.200 C 294.519 249.200,294.800 249.500,294.800 249.867 C 294.800 250.233,294.893 250.441,295.006 250.328 C 295.310 250.023,302.000 256.060,302.000 256.640 C 302.000 256.715,303.170 257.964,304.600 259.415 C 306.030 260.866,307.200 262.222,307.200 262.427 C 307.200 262.632,307.380 262.800,307.600 262.800 C 307.820 262.800,308.000 263.057,308.000 263.371 C 308.000 263.685,308.444 264.291,308.986 264.718 C 309.529 265.145,309.863 265.603,309.729 265.737 C 309.595 265.872,309.781 266.095,310.143 266.233 C 310.504 266.372,310.800 266.826,310.800 267.243 C 310.800 267.659,310.980 268.000,311.200 268.000 C 311.420 268.000,311.600 268.278,311.600 268.617 C 311.600 268.957,312.050 269.720,312.600 270.313 C 313.150 270.907,313.600 271.548,313.600 271.739 C 313.600 272.131,317.251 275.589,317.671 275.596 C 317.821 275.598,318.188 275.825,318.487 276.100 C 319.417 276.955,320.754 277.600,321.595 277.600 C 322.038 277.600,322.400 277.831,322.400 278.113 C 322.400 278.395,323.255 278.860,324.300 279.146 C 325.345 279.433,326.560 279.821,327.000 280.009 C 330.400 281.460,344.071 280.835,345.200 279.176 C 345.310 279.015,345.850 278.819,346.400 278.741 C 346.950 278.664,347.580 278.389,347.800 278.131 C 348.490 277.320,351.883 275.618,352.213 275.916 C 352.386 276.072,352.399 275.975,352.241 275.700 C 352.082 275.425,352.099 275.200,352.278 275.200 C 353.493 275.200,359.600 268.032,359.600 266.605 C 359.600 266.272,359.780 266.000,360.000 266.000 C 360.220 266.000,360.400 265.640,360.400 265.200 C 360.400 264.760,360.580 264.400,360.800 264.400 C 361.020 264.400,361.200 263.986,361.200 263.480 C 361.200 262.974,361.361 262.389,361.558 262.180 C 362.558 261.118,363.611 253.179,362.871 252.283 C 362.651 252.017,362.345 251.125,362.191 250.300 C 362.037 249.475,361.751 248.800,361.555 248.800 C 361.360 248.800,361.200 248.170,361.200 247.400 C 361.200 246.630,361.020 246.000,360.800 246.000 C 360.580 246.000,360.400 245.550,360.400 245.000 C 360.400 244.450,360.220 244.000,360.000 244.000 C 359.780 244.000,359.600 243.640,359.600 243.200 C 359.600 242.760,359.420 242.400,359.200 242.400 C 358.980 242.400,358.800 242.034,358.800 241.587 C 358.800 241.141,358.530 240.671,358.200 240.545 C 357.870 240.418,357.600 240.040,357.600 239.704 C 357.600 239.368,357.271 238.803,356.870 238.447 C 356.468 238.091,355.884 237.215,355.572 236.500 C 355.260 235.785,354.879 235.200,354.726 235.200 C 354.573 235.200,353.625 234.390,352.621 233.400 C 351.617 232.410,350.595 231.600,350.350 231.600 C 350.106 231.600,349.390 231.015,348.759 230.300 C 348.129 229.585,347.610 229.147,347.606 229.327 C 347.603 229.507,347.077 229.282,346.438 228.827 C 345.799 228.372,344.899 228.000,344.438 228.000 C 343.977 228.000,343.600 227.840,343.600 227.645 C 343.600 227.264,342.083 226.880,339.200 226.530 C 338.210 226.410,337.272 226.090,337.116 225.820 C 336.750 225.186,329.093 225.320,328.878 225.965 C 328.796 226.213,327.717 226.400,326.367 226.400 C 325.056 226.400,324.000 226.578,324.000 226.800 C 324.000 227.020,323.370 227.200,322.600 227.200 C 321.830 227.200,321.200 227.336,321.200 227.502 C 321.200 227.812,318.710 229.040,318.464 228.851 C 318.389 228.794,318.100 229.058,317.821 229.438 C 317.523 229.846,317.051 230.028,316.669 229.882 C 316.314 229.746,315.761 229.896,315.440 230.217 C 314.583 231.074,304.316 231.063,303.604 230.204 C 303.332 229.877,302.947 229.709,302.750 229.831 C 302.552 229.953,301.824 229.771,301.133 229.427 C 300.442 229.082,299.455 228.800,298.939 228.800 C 298.422 228.800,298.000 228.620,298.000 228.400 C 298.000 228.180,297.651 228.000,297.224 228.000 C 296.797 228.000,296.336 227.820,296.200 227.600 C 296.064 227.380,295.603 227.200,295.176 227.200 C 294.749 227.200,294.400 227.020,294.400 226.800 C 294.400 226.580,294.040 226.400,293.600 226.400 C 293.120 226.400,292.800 226.133,292.800 225.733 C 292.800 225.367,292.685 225.182,292.544 225.323 C 292.322 225.545,290.167 224.574,289.600 223.996 C 289.490 223.884,288.725 223.438,287.900 223.005 C 287.075 222.572,286.400 222.068,286.400 221.885 C 286.400 221.702,286.220 221.664,286.000 221.800 C 285.780 221.936,285.600 221.885,285.600 221.687 C 285.600 221.488,284.970 220.987,284.200 220.572 C 283.430 220.157,282.800 219.679,282.800 219.509 C 282.800 219.339,282.485 219.198,282.100 219.196 C 281.715 219.194,281.048 218.780,280.617 218.277 C 280.068 217.636,279.515 217.410,278.764 217.520 C 278.176 217.606,277.573 217.480,277.424 217.238 C 276.818 216.258,273.477 216.790,271.308 218.212 M230.600 217.865 C 232.813 220.050,235.610 222.372,234.200 220.855 C 233.320 219.908,232.060 218.759,231.400 218.302 C 230.740 217.845,230.380 217.648,230.600 217.865 M203.293 223.100 C 202.257 224.596,201.921 225.200,202.123 225.200 C 202.217 225.200,202.770 224.480,203.353 223.600 C 204.536 221.812,204.484 221.379,203.293 223.100 M158.514 226.600 C 158.517 227.700,158.595 228.103,158.687 227.495 C 158.779 226.886,158.777 225.986,158.682 225.495 C 158.587 225.003,158.511 225.500,158.514 226.600 M199.720 234.400 C 199.720 235.610,199.795 236.105,199.887 235.500 C 199.978 234.895,199.978 233.905,199.887 233.300 C 199.795 232.695,199.720 233.190,199.720 234.400 M162.000 236.200 C 162.746 236.970,163.447 237.600,163.557 237.600 C 163.667 237.600,163.146 236.970,162.400 236.200 C 161.654 235.430,160.953 234.800,160.843 234.800 C 160.733 234.800,161.254 235.430,162.000 236.200 M171.100 240.289 C 171.815 240.378,172.985 240.378,173.700 240.289 C 174.415 240.201,173.830 240.128,172.400 240.128 C 170.970 240.128,170.385 240.201,171.100 240.289 M205.400 248.400 C 206.259 249.280,207.052 250.000,207.162 250.000 C 207.272 250.000,206.659 249.280,205.800 248.400 C 204.941 247.520,204.148 246.800,204.038 246.800 C 203.928 246.800,204.541 247.520,205.400 248.400 M233.375 248.900 L 232.200 250.200 233.500 249.025 C 234.712 247.930,234.984 247.600,234.675 247.600 C 234.606 247.600,234.021 248.185,233.375 248.900 M199.815 270.216 C 194.658 271.630,191.008 274.677,191.071 277.514 C 191.119 279.688,191.660 282.800,191.989 282.800 C 192.146 282.800,192.613 283.430,193.028 284.200 C 193.443 284.970,193.921 285.600,194.091 285.600 C 194.261 285.600,194.400 285.945,194.400 286.367 C 194.400 286.788,194.544 287.193,194.721 287.267 C 195.091 287.421,198.000 293.389,198.000 293.995 C 198.000 294.218,198.180 294.400,198.400 294.400 C 198.620 294.400,198.800 294.850,198.800 295.400 C 198.800 295.950,198.980 296.400,199.200 296.400 C 199.420 296.400,199.600 297.030,199.600 297.800 C 199.600 298.570,199.780 299.200,200.000 299.200 C 200.245 299.200,200.400 301.141,200.400 304.224 C 200.400 307.471,200.259 309.160,200.000 309.000 C 199.768 308.857,199.600 309.245,199.600 309.923 C 199.600 311.224,195.322 316.010,192.900 317.417 C 192.185 317.833,191.600 318.314,191.600 318.486 C 191.600 318.659,191.353 318.800,191.050 318.800 C 190.324 318.800,187.224 320.546,186.113 321.580 C 185.629 322.031,184.990 322.400,184.692 322.400 C 184.394 322.400,183.769 322.756,183.301 323.191 C 182.834 323.627,182.238 324.032,181.977 324.091 C 181.436 324.215,178.800 326.785,178.800 327.189 C 178.800 327.335,178.180 328.151,177.423 329.003 C 176.665 329.854,176.136 330.697,176.247 330.875 C 176.357 331.054,176.257 331.200,176.024 331.200 C 175.791 331.200,175.600 331.571,175.600 332.024 C 175.600 332.477,175.420 332.736,175.200 332.600 C 174.975 332.461,174.800 332.780,174.800 333.327 C 174.800 333.863,174.547 334.512,174.237 334.769 C 173.928 335.026,173.722 335.669,173.780 336.197 C 173.838 336.726,173.658 337.246,173.380 337.352 C 171.965 337.895,172.064 349.334,173.514 352.859 C 173.753 353.441,173.866 354.001,173.765 354.102 C 173.664 354.203,173.855 354.514,174.190 354.792 C 174.526 355.070,174.800 355.636,174.800 356.049 C 174.800 356.462,174.980 356.800,175.200 356.800 C 175.420 356.800,175.600 357.098,175.600 357.462 C 175.600 357.826,176.042 358.704,176.583 359.413 C 177.123 360.121,177.438 360.842,177.283 361.015 C 177.127 361.187,177.237 361.191,177.527 361.024 C 177.876 360.823,178.128 361.002,178.272 361.555 C 178.393 362.015,178.650 362.292,178.845 362.172 C 179.040 362.051,179.200 362.098,179.200 362.276 C 179.202 363.260,183.725 366.930,186.300 368.037 C 187.015 368.344,187.600 368.731,187.600 368.898 C 187.600 369.064,188.028 369.200,188.551 369.200 C 189.074 369.200,189.730 369.474,190.008 369.810 C 190.286 370.145,190.601 370.332,190.708 370.226 C 190.814 370.119,191.531 370.295,192.300 370.616 C 195.514 371.959,210.000 371.090,210.000 369.554 C 210.000 369.359,210.504 369.200,211.120 369.200 C 211.736 369.200,212.411 369.037,212.620 368.837 C 212.829 368.637,213.887 367.984,214.970 367.385 C 216.054 366.786,217.336 365.914,217.820 365.448 C 218.304 364.982,219.037 364.320,219.450 363.978 C 219.862 363.635,220.558 362.870,220.995 362.278 C 221.432 361.685,222.017 361.200,222.295 361.200 C 222.573 361.200,222.769 361.065,222.730 360.900 C 222.598 360.333,223.717 358.425,224.058 358.636 C 224.246 358.752,224.400 358.387,224.400 357.824 C 224.400 357.261,224.580 356.800,224.800 356.800 C 225.020 356.800,225.200 356.462,225.200 356.049 C 225.200 355.636,225.474 355.070,225.810 354.792 C 226.145 354.514,226.336 354.203,226.235 354.102 C 226.134 354.001,226.247 353.441,226.486 352.859 C 227.551 350.270,228.509 336.838,227.588 337.407 C 227.347 337.556,227.200 336.151,227.200 333.704 C 227.200 331.535,227.040 329.589,226.845 329.380 C 226.649 329.171,226.378 327.928,226.242 326.618 C 226.106 325.307,225.816 324.056,225.598 323.838 C 225.379 323.619,225.200 322.576,225.200 321.520 C 225.200 320.464,225.020 319.600,224.800 319.600 C 224.580 319.600,224.400 318.646,224.400 317.480 C 224.400 316.314,224.238 315.189,224.041 314.980 C 223.844 314.771,223.585 313.880,223.467 313.000 C 223.027 309.725,222.507 307.547,222.060 307.100 C 221.807 306.847,221.600 305.776,221.600 304.720 C 221.600 303.664,221.420 302.800,221.200 302.800 C 220.980 302.800,220.800 301.810,220.800 300.600 C 220.800 299.390,220.620 298.400,220.400 298.400 C 220.178 298.400,220.000 297.333,220.000 296.000 C 220.000 294.588,219.827 293.600,219.579 293.600 C 218.572 293.600,219.191 278.772,220.277 276.912 C 221.677 274.514,220.956 272.925,217.788 271.421 C 214.249 269.742,204.040 269.057,199.815 270.216 " stroke="none" fill="#8bc44c" fill-rule="evenodd"></path><path id="path3" d="M259.200 82.800 C 259.200 83.020,258.390 83.200,257.400 83.200 C 256.410 83.200,255.600 83.380,255.600 83.600 C 255.600 83.820,255.060 84.000,254.400 84.000 C 253.740 84.000,253.200 84.180,253.200 84.400 C 253.200 84.620,252.769 84.800,252.243 84.800 C 251.716 84.800,251.182 85.070,251.055 85.400 C 250.929 85.730,250.549 86.000,250.213 86.000 C 249.876 86.000,249.600 86.180,249.600 86.400 C 249.600 86.620,249.330 86.800,249.000 86.800 C 248.670 86.800,248.400 86.980,248.400 87.200 C 248.400 87.420,248.130 87.600,247.800 87.600 C 247.470 87.600,247.200 87.780,247.200 88.000 C 247.200 88.220,246.998 88.400,246.752 88.400 C 246.192 88.400,243.333 91.362,242.000 93.324 C 241.450 94.133,240.865 94.796,240.700 94.797 C 240.535 94.799,240.400 95.160,240.400 95.600 C 240.400 96.040,240.220 96.400,240.000 96.400 C 239.780 96.400,239.600 96.850,239.600 97.400 C 239.600 97.950,239.420 98.400,239.200 98.400 C 238.980 98.400,238.800 98.745,238.800 99.167 C 238.800 99.588,238.582 100.006,238.316 100.095 C 238.050 100.183,237.812 100.693,237.787 101.228 C 237.763 101.763,237.530 102.593,237.271 103.074 C 236.551 104.409,236.626 116.158,237.359 116.766 C 237.666 117.021,237.832 117.556,237.728 117.955 C 237.623 118.354,237.822 118.965,238.169 119.312 C 238.824 119.967,239.133 126.111,238.500 125.900 C 238.335 125.845,238.163 125.945,238.118 126.122 C 238.072 126.299,237.641 126.762,237.160 127.152 L 236.284 127.861 237.115 128.631 C 237.572 129.054,238.633 129.755,239.473 130.189 C 241.891 131.438,247.498 135.254,251.165 138.146 C 255.335 141.435,255.013 141.431,257.420 138.225 C 257.843 137.661,258.417 137.200,258.695 137.200 C 258.973 137.200,259.200 137.020,259.200 136.800 C 259.200 136.580,259.920 136.400,260.800 136.400 C 261.680 136.400,262.400 136.220,262.400 136.000 C 262.400 135.757,264.200 135.600,267.000 135.600 C 269.800 135.600,271.600 135.443,271.600 135.200 C 271.600 134.980,272.146 134.800,272.813 134.800 C 273.521 134.800,274.121 134.551,274.255 134.200 C 274.387 133.858,274.983 133.600,275.643 133.600 C 276.279 133.600,276.800 133.420,276.800 133.200 C 276.800 132.980,277.126 132.800,277.525 132.800 C 277.923 132.800,278.636 132.440,279.108 132.000 C 279.580 131.560,280.165 131.200,280.408 131.200 C 280.984 131.200,285.600 126.612,285.600 126.039 C 285.600 125.798,285.793 125.600,286.029 125.600 C 286.893 125.600,289.200 122.276,289.200 121.031 C 289.200 120.731,289.470 120.382,289.800 120.255 C 290.130 120.129,290.400 119.670,290.400 119.236 C 290.400 118.802,290.580 118.336,290.800 118.200 C 291.020 118.064,291.200 117.333,291.200 116.576 C 291.200 115.819,291.380 115.200,291.600 115.200 C 291.849 115.200,292.000 112.867,292.000 109.000 C 292.000 105.133,291.849 102.800,291.600 102.800 C 291.380 102.800,291.200 102.311,291.200 101.713 C 291.200 100.398,290.028 97.200,289.546 97.200 C 289.356 97.200,289.200 96.840,289.200 96.400 C 289.200 95.960,289.064 95.600,288.898 95.600 C 288.731 95.600,288.337 95.015,288.022 94.300 C 287.444 92.989,286.665 92.000,286.210 92.000 C 285.846 92.000,284.000 90.090,284.000 89.713 C 284.000 89.535,283.520 89.032,282.934 88.595 C 282.348 88.158,281.641 87.575,281.363 87.300 C 281.085 87.025,280.664 86.800,280.429 86.800 C 280.193 86.800,279.634 86.434,279.188 85.988 C 278.741 85.541,277.841 85.068,277.188 84.938 C 276.534 84.807,276.000 84.543,276.000 84.350 C 276.000 84.158,275.550 84.000,275.000 84.000 C 274.450 84.000,274.000 83.820,274.000 83.600 C 274.000 83.380,273.201 83.200,272.224 83.200 C 271.247 83.200,270.336 83.020,270.200 82.800 C 270.055 82.565,267.729 82.400,264.576 82.400 C 261.259 82.400,259.200 82.553,259.200 82.800 M262.000 147.538 C 262.000 147.724,262.388 148.219,262.862 148.638 L 263.724 149.400 263.016 148.300 C 262.286 147.166,262.000 146.951,262.000 147.538 M52.000 161.800 C 52.000 162.219,51.578 162.400,50.600 162.400 C 49.830 162.400,49.200 162.580,49.200 162.800 C 49.200 163.020,48.840 163.200,48.400 163.200 C 47.960 163.200,47.600 163.380,47.600 163.600 C 47.600 163.820,47.332 164.000,47.005 164.000 C 45.872 164.000,40.804 168.839,39.975 170.712 C 39.661 171.420,39.269 172.000,39.102 172.000 C 38.936 172.000,38.800 172.435,38.800 172.967 C 38.800 173.498,38.601 174.000,38.358 174.081 C 38.115 174.162,37.866 174.822,37.804 175.548 C 37.743 176.274,37.491 177.069,37.246 177.314 C 36.683 177.877,36.641 184.400,37.200 184.400 C 37.420 184.400,37.600 184.906,37.600 185.524 C 37.600 186.141,37.864 186.996,38.187 187.424 C 38.510 187.851,38.780 188.515,38.787 188.900 C 38.794 189.285,38.980 189.600,39.200 189.600 C 39.420 189.600,39.600 189.915,39.600 190.300 C 39.601 191.118,41.285 193.200,41.947 193.200 C 42.196 193.200,42.400 193.398,42.400 193.640 C 42.400 194.478,47.404 198.800,48.373 198.800 C 48.608 198.800,48.800 198.980,48.800 199.200 C 48.800 199.420,49.239 199.600,49.776 199.600 C 50.313 199.600,50.864 199.780,51.000 200.000 C 51.136 200.220,51.867 200.400,52.624 200.400 C 53.381 200.400,54.000 200.580,54.000 200.800 C 54.000 201.044,55.867 201.200,58.800 201.200 C 61.733 201.200,63.600 201.044,63.600 200.800 C 63.600 200.580,64.410 200.400,65.400 200.400 C 66.390 200.400,67.200 200.220,67.200 200.000 C 67.200 199.780,67.560 199.600,68.000 199.600 C 68.440 199.600,68.800 199.420,68.800 199.200 C 68.800 198.980,69.166 198.800,69.613 198.800 C 70.059 198.800,70.529 198.530,70.655 198.200 C 70.787 197.858,71.383 197.600,72.043 197.600 C 72.679 197.600,73.200 197.420,73.200 197.200 C 73.200 196.980,73.830 196.800,74.600 196.800 C 75.370 196.800,76.000 196.620,76.000 196.400 C 76.000 196.180,76.810 196.000,77.800 196.000 C 78.790 196.000,79.600 195.820,79.600 195.600 C 79.600 195.347,82.467 195.200,87.400 195.200 C 92.333 195.200,95.200 195.347,95.200 195.600 C 95.200 195.820,96.100 196.000,97.200 196.000 C 98.300 196.000,99.200 196.180,99.200 196.400 C 99.200 196.620,100.010 196.800,101.000 196.800 C 101.990 196.800,102.800 196.980,102.800 197.200 C 102.800 197.420,103.228 197.600,103.751 197.600 C 104.274 197.600,104.926 197.870,105.200 198.200 C 105.474 198.530,106.036 198.800,106.449 198.800 C 106.862 198.800,107.200 198.980,107.200 199.200 C 107.200 199.420,107.560 199.600,108.000 199.600 C 108.440 199.600,108.800 199.746,108.800 199.925 C 108.800 200.104,109.414 200.492,110.165 200.786 C 110.916 201.081,111.756 201.744,112.033 202.261 C 112.309 202.777,112.691 203.200,112.881 203.200 C 113.614 203.200,115.929 205.951,116.450 207.439 C 116.750 208.297,117.121 209.094,117.273 209.209 C 117.426 209.323,117.646 209.938,117.761 210.574 C 117.876 211.210,118.157 211.917,118.385 212.145 C 118.613 212.373,118.800 212.931,118.800 213.384 C 118.800 213.837,119.157 214.431,119.594 214.703 C 120.358 215.181,120.380 215.113,120.193 212.900 C 119.250 201.777,119.204 200.399,119.602 195.433 C 120.469 184.627,122.598 175.991,126.456 167.625 C 127.476 165.412,127.875 163.200,127.252 163.200 C 127.004 163.200,126.800 163.380,126.800 163.600 C 126.800 163.820,126.542 164.000,126.227 164.000 C 125.912 164.000,125.244 164.585,124.742 165.300 C 124.240 166.015,123.687 166.660,123.514 166.733 C 123.342 166.807,123.200 167.135,123.200 167.462 C 123.200 168.153,122.253 169.200,121.629 169.200 C 121.393 169.200,121.200 169.393,121.200 169.629 C 121.200 170.266,120.147 171.200,119.429 171.200 C 119.083 171.200,118.800 171.352,118.800 171.537 C 118.800 171.723,117.987 172.292,116.994 172.803 C 116.001 173.314,114.989 173.972,114.745 174.266 C 114.502 174.560,113.874 174.800,113.351 174.800 C 112.828 174.800,112.400 174.980,112.400 175.200 C 112.400 175.420,111.680 175.600,110.800 175.600 C 109.920 175.600,109.200 175.780,109.200 176.000 C 109.200 176.252,106.467 176.400,101.800 176.400 C 97.133 176.400,94.400 176.252,94.400 176.000 C 94.400 175.780,93.511 175.600,92.424 175.600 C 91.337 175.600,90.336 175.420,90.200 175.200 C 90.064 174.980,89.423 174.800,88.776 174.800 C 88.129 174.800,87.600 174.620,87.600 174.400 C 87.600 174.180,87.285 173.999,86.900 173.998 C 86.515 173.996,85.684 173.726,85.054 173.398 C 84.424 173.069,83.580 172.800,83.178 172.800 C 82.776 172.800,82.336 172.620,82.200 172.400 C 82.064 172.180,81.603 172.000,81.176 172.000 C 80.749 172.000,80.400 171.820,80.400 171.600 C 80.400 171.380,80.051 171.200,79.624 171.200 C 79.197 171.200,78.736 171.020,78.600 170.800 C 78.464 170.580,78.023 170.400,77.619 170.400 C 77.216 170.400,76.782 170.130,76.655 169.800 C 76.529 169.470,76.149 169.200,75.813 169.200 C 75.476 169.200,75.200 169.020,75.200 168.800 C 75.200 168.580,74.834 168.400,74.387 168.400 C 73.552 168.400,70.800 165.955,70.800 165.213 C 70.800 164.986,70.530 164.800,70.200 164.800 C 69.870 164.800,69.600 164.620,69.600 164.400 C 69.600 164.180,69.240 164.000,68.800 164.000 C 68.360 164.000,68.000 163.820,68.000 163.600 C 68.000 163.380,67.651 163.200,67.224 163.200 C 66.797 163.200,66.336 163.020,66.200 162.800 C 66.064 162.580,65.443 162.400,64.819 162.400 C 64.181 162.400,63.585 162.138,63.455 161.800 C 63.266 161.306,62.232 161.200,57.613 161.200 C 52.890 161.200,52.000 161.295,52.000 161.800 M273.200 165.600 C 273.200 165.820,273.380 166.000,273.600 166.000 C 273.820 166.000,274.000 166.300,274.000 166.667 C 274.000 167.033,274.106 167.227,274.237 167.097 C 274.570 166.763,274.023 165.200,273.573 165.200 C 273.368 165.200,273.200 165.380,273.200 165.600 M280.900 169.487 C 281.505 169.578,282.000 169.821,282.000 170.027 C 282.000 170.232,282.315 170.394,282.700 170.387 C 283.333 170.376,283.326 170.319,282.624 169.787 C 282.196 169.464,281.386 169.227,280.824 169.260 C 279.809 169.319,279.809 169.321,280.900 169.487 M342.281 178.239 C 341.886 178.768,341.708 179.200,341.885 179.200 C 342.234 179.200,343.338 177.601,343.128 177.400 C 343.057 177.333,342.677 177.711,342.281 178.239 M91.400 230.400 C 91.798 230.840,92.304 231.200,92.523 231.200 C 92.743 231.200,92.507 230.840,92.000 230.400 C 91.493 229.960,90.987 229.600,90.877 229.600 C 90.766 229.600,91.002 229.960,91.400 230.400 M258.996 255.300 C 253.180 261.462,247.372 266.144,240.955 269.841 C 238.780 271.094,236.496 272.633,235.880 273.260 L 234.759 274.400 235.980 274.400 C 236.651 274.400,237.200 274.580,237.200 274.800 C 237.200 275.020,237.545 275.200,237.966 275.200 C 238.433 275.200,238.941 275.669,239.264 276.400 C 239.556 277.060,239.931 277.600,240.098 277.600 C 240.561 277.600,240.466 289.112,240.000 289.400 C 239.780 289.536,239.600 291.066,239.600 292.800 C 239.600 294.534,239.420 296.064,239.200 296.200 C 238.955 296.351,238.800 299.537,238.800 304.424 C 238.800 309.475,238.947 312.400,239.200 312.400 C 239.420 312.400,239.600 313.030,239.600 313.800 C 239.600 314.570,239.780 315.200,240.000 315.200 C 240.220 315.200,240.400 315.639,240.400 316.176 C 240.400 316.713,240.580 317.264,240.800 317.400 C 241.020 317.536,241.200 317.988,241.200 318.404 C 241.200 318.820,241.425 319.304,241.701 319.480 C 241.976 319.656,242.471 320.325,242.801 320.968 C 243.428 322.189,246.725 325.600,247.279 325.600 C 247.456 325.600,247.600 325.804,247.600 326.053 C 247.600 326.653,249.649 328.399,250.353 328.400 C 250.657 328.400,251.197 328.716,251.553 329.102 C 252.287 329.898,254.931 331.200,255.814 331.200 C 256.136 331.200,256.400 331.380,256.400 331.600 C 256.400 331.820,257.210 332.000,258.200 332.000 C 259.190 332.000,260.000 332.180,260.000 332.400 C 260.000 332.649,262.333 332.800,266.200 332.800 C 270.067 332.800,272.400 332.649,272.400 332.400 C 272.400 332.180,273.109 332.000,273.976 332.000 C 274.843 332.000,275.664 331.820,275.800 331.600 C 275.936 331.380,276.397 331.200,276.824 331.200 C 277.251 331.200,277.600 331.020,277.600 330.800 C 277.600 330.580,277.966 330.400,278.413 330.400 C 278.859 330.400,279.329 330.130,279.455 329.800 C 279.582 329.470,280.026 329.200,280.443 329.200 C 280.859 329.200,281.200 329.020,281.200 328.800 C 281.200 328.580,281.470 328.400,281.800 328.400 C 282.130 328.400,282.400 328.220,282.400 328.000 C 282.400 327.780,282.683 327.600,283.029 327.600 C 283.652 327.600,284.800 326.693,284.800 326.200 C 284.800 325.872,285.864 324.800,286.190 324.800 C 286.604 324.800,288.400 322.864,288.400 322.418 C 288.400 322.188,288.580 322.000,288.800 322.000 C 289.020 322.000,289.200 321.640,289.200 321.200 C 289.200 320.760,289.405 320.400,289.656 320.400 C 290.271 320.400,291.172 319.165,291.187 318.300 C 291.194 317.915,291.380 317.600,291.600 317.600 C 291.820 317.600,292.000 317.161,292.000 316.624 C 292.000 316.087,292.180 315.536,292.400 315.400 C 292.620 315.264,292.800 314.533,292.800 313.776 C 292.800 313.019,292.980 312.400,293.200 312.400 C 293.451 312.400,293.600 309.800,293.600 305.400 C 293.600 301.000,293.451 298.400,293.200 298.400 C 292.980 298.400,292.800 297.770,292.800 297.000 C 292.800 296.230,292.620 295.600,292.400 295.600 C 292.180 295.600,292.000 295.060,292.000 294.400 C 292.000 293.740,291.820 293.200,291.600 293.200 C 291.380 293.200,291.200 292.930,291.200 292.600 C 291.200 292.270,291.020 292.000,290.800 292.000 C 290.580 292.000,290.400 291.724,290.400 291.387 C 290.400 291.051,290.130 290.671,289.800 290.545 C 289.470 290.418,289.200 290.156,289.200 289.962 C 289.200 289.512,288.071 288.093,286.866 287.027 C 286.352 286.572,285.197 285.525,284.301 284.700 C 283.404 283.875,282.339 283.200,281.935 283.200 C 281.531 283.200,281.200 283.020,281.200 282.800 C 281.200 282.580,280.859 282.400,280.443 282.400 C 280.026 282.400,279.582 282.130,279.455 281.800 C 279.321 281.449,278.721 281.200,278.013 281.200 C 277.346 281.200,276.800 281.020,276.800 280.800 C 276.800 280.580,276.170 280.400,275.400 280.400 C 274.630 280.400,274.000 280.220,274.000 280.000 C 274.000 279.762,272.475 279.600,270.224 279.600 C 268.137 279.600,266.337 279.421,266.200 279.200 C 266.064 278.980,265.603 278.800,265.176 278.800 C 264.749 278.800,264.400 278.530,264.400 278.200 C 264.400 277.870,264.265 277.599,264.100 277.597 C 263.741 277.593,262.800 275.656,262.800 274.920 C 262.800 274.634,262.530 274.400,262.200 274.400 C 261.429 274.400,261.282 256.573,262.051 256.316 C 262.299 256.234,262.630 255.319,262.787 254.283 C 263.202 251.548,262.312 251.787,258.996 255.300 M140.800 256.771 C 140.800 256.976,141.061 257.404,141.381 257.724 C 141.700 258.043,141.855 258.412,141.724 258.543 C 141.593 258.674,141.781 258.895,142.143 259.033 C 142.504 259.172,142.800 259.616,142.800 260.019 C 142.800 260.423,142.980 260.864,143.200 261.000 C 143.420 261.136,143.600 261.777,143.600 262.424 C 143.600 263.071,143.763 263.600,143.961 263.600 C 144.160 263.600,144.421 264.455,144.540 265.500 C 144.660 266.545,144.874 268.054,145.017 268.853 C 145.177 269.747,145.108 270.410,144.838 270.576 C 144.597 270.725,144.400 271.647,144.400 272.624 C 144.400 273.601,144.220 274.400,144.000 274.400 C 143.780 274.400,143.600 274.861,143.600 275.424 C 143.600 276.004,143.427 276.340,143.200 276.200 C 142.980 276.064,142.800 276.336,142.800 276.805 C 142.800 277.274,142.528 277.929,142.196 278.261 C 141.864 278.593,141.695 279.030,141.820 279.232 C 141.945 279.435,141.848 279.600,141.605 279.600 C 141.142 279.600,139.200 281.385,139.200 281.810 C 139.200 282.178,138.109 283.200,137.717 283.200 C 137.530 283.200,137.117 283.560,136.800 284.000 C 136.483 284.440,136.025 284.800,135.781 284.800 C 135.538 284.800,134.930 285.236,134.430 285.768 C 133.930 286.300,132.999 286.952,132.360 287.216 C 131.722 287.481,131.200 287.855,131.200 288.049 C 131.200 288.242,130.851 288.400,130.424 288.400 C 129.997 288.400,129.536 288.580,129.400 288.800 C 129.264 289.020,128.803 289.200,128.376 289.200 C 127.949 289.200,127.600 289.470,127.600 289.800 C 127.600 290.173,127.222 290.400,126.600 290.400 C 126.050 290.400,125.600 290.580,125.600 290.800 C 125.600 291.020,125.060 291.200,124.400 291.200 C 123.740 291.200,123.200 291.380,123.200 291.600 C 123.200 291.826,122.067 292.000,120.600 292.000 C 119.133 292.000,118.000 292.174,118.000 292.400 C 118.000 292.620,117.550 292.800,117.000 292.800 C 116.450 292.800,116.000 292.980,116.000 293.200 C 116.000 293.420,115.640 293.600,115.200 293.600 C 114.756 293.600,114.400 293.867,114.400 294.200 C 114.400 294.542,114.040 294.800,113.563 294.800 C 112.630 294.800,108.000 299.325,108.000 300.238 C 108.000 300.547,107.820 300.800,107.600 300.800 C 107.380 300.800,107.200 301.250,107.200 301.800 C 107.200 302.350,107.020 302.800,106.800 302.800 C 106.580 302.800,106.400 303.173,106.400 303.629 C 106.400 304.084,106.130 304.727,105.800 305.057 C 105.329 305.528,105.200 306.762,105.200 310.800 C 105.200 314.838,105.329 316.072,105.800 316.543 C 106.130 316.873,106.400 317.606,106.400 318.171 C 106.400 318.737,106.580 319.200,106.800 319.200 C 107.020 319.200,107.200 319.483,107.200 319.828 C 107.200 321.073,111.741 326.800,112.728 326.800 C 112.988 326.800,113.200 326.980,113.200 327.200 C 113.200 327.420,113.470 327.600,113.800 327.600 C 114.130 327.600,114.400 327.780,114.400 328.000 C 114.400 328.220,114.760 328.400,115.200 328.400 C 115.640 328.400,116.000 328.580,116.000 328.800 C 116.000 329.020,116.366 329.200,116.813 329.200 C 117.259 329.200,117.729 329.470,117.855 329.800 C 117.985 330.138,118.581 330.400,119.219 330.400 C 119.843 330.400,120.464 330.580,120.600 330.800 C 120.743 331.032,122.930 331.200,125.800 331.200 C 128.670 331.200,130.857 331.032,131.000 330.800 C 131.136 330.580,131.584 330.400,131.995 330.400 C 132.406 330.400,133.013 330.130,133.343 329.800 C 133.673 329.470,134.316 329.200,134.771 329.200 C 135.227 329.200,135.600 329.020,135.600 328.800 C 135.600 328.580,135.960 328.400,136.400 328.400 C 136.840 328.400,137.200 328.250,137.200 328.068 C 137.200 327.885,137.650 327.494,138.200 327.200 C 138.750 326.906,139.200 326.515,139.200 326.333 C 139.200 326.150,140.190 325.002,141.400 323.783 C 142.610 322.563,143.600 321.303,143.600 320.982 C 143.600 320.662,143.780 320.400,144.000 320.400 C 144.220 320.400,144.400 319.950,144.400 319.400 C 144.400 318.850,144.580 318.400,144.800 318.400 C 145.020 318.400,145.200 317.757,145.200 316.971 C 145.200 316.186,145.470 315.273,145.800 314.943 C 146.232 314.510,146.400 313.457,146.400 311.171 C 146.400 309.324,146.567 308.000,146.800 308.000 C 147.020 308.000,147.200 307.201,147.200 306.224 C 147.200 305.247,147.380 304.336,147.600 304.200 C 147.820 304.064,148.000 303.243,148.000 302.376 C 148.000 301.509,148.180 300.800,148.400 300.800 C 148.620 300.800,148.800 300.260,148.800 299.600 C 148.800 298.940,148.980 298.400,149.200 298.400 C 149.420 298.400,149.600 297.969,149.600 297.443 C 149.600 296.916,149.870 296.382,150.200 296.255 C 150.530 296.129,150.800 295.659,150.800 295.213 C 150.800 294.766,150.980 294.400,151.200 294.400 C 151.420 294.400,151.600 294.040,151.600 293.600 C 151.600 293.160,151.780 292.800,152.000 292.800 C 152.220 292.800,152.400 292.440,152.400 292.000 C 152.400 291.560,152.580 291.200,152.800 291.200 C 153.020 291.200,153.200 291.012,153.200 290.783 C 153.200 290.314,153.628 289.757,155.500 287.792 C 156.215 287.041,156.800 286.318,156.800 286.185 C 156.800 285.857,157.877 284.800,158.211 284.800 C 158.358 284.800,158.983 284.260,159.600 283.600 C 160.217 282.940,160.876 282.400,161.065 282.400 C 161.254 282.400,161.893 281.950,162.487 281.400 C 163.080 280.850,163.843 280.400,164.183 280.400 C 164.522 280.400,164.800 280.220,164.800 280.000 C 164.800 279.780,165.239 279.600,165.776 279.600 C 166.313 279.600,166.864 279.420,167.000 279.200 C 167.136 278.980,167.687 278.800,168.224 278.800 C 168.825 278.800,169.200 278.569,169.200 278.200 C 169.200 277.756,169.667 277.600,171.000 277.600 C 171.990 277.600,172.800 277.502,172.800 277.383 C 172.800 276.757,171.091 275.629,168.600 274.611 C 165.191 273.219,159.598 270.310,157.328 268.749 C 156.408 268.117,155.478 267.600,155.261 267.600 C 155.044 267.600,154.807 267.462,154.733 267.293 C 154.660 267.124,153.610 266.275,152.400 265.406 C 151.190 264.537,150.110 263.724,150.000 263.599 C 149.890 263.475,149.282 262.974,148.648 262.488 C 148.015 262.001,146.553 260.748,145.399 259.702 C 141.714 256.360,140.800 255.777,140.800 256.771 M75.200 280.000 C 75.200 280.220,75.695 280.387,76.300 280.372 C 77.275 280.347,77.309 280.305,76.600 280.000 C 75.507 279.531,75.200 279.531,75.200 280.000 " stroke="none" fill="#2c7c2c" fill-rule="evenodd"></path><path id="path4" d="M180.600 149.020 C 157.680 153.382,151.040 181.788,169.813 195.169 C 185.414 206.290,207.501 198.580,211.820 180.507 C 216.209 162.143,199.609 145.401,180.600 149.020 M192.989 150.256 C 193.423 150.555,194.019 150.800,194.314 150.800 C 195.292 150.800,200.171 153.328,201.988 154.775 C 202.972 155.559,204.115 156.470,204.528 156.800 C 206.211 158.145,210.400 165.021,210.400 166.438 C 210.400 166.831,210.580 167.264,210.800 167.400 C 211.020 167.536,211.200 168.501,211.200 169.544 C 211.200 170.587,211.397 171.637,211.638 171.878 C 212.100 172.340,211.951 175.299,211.267 179.200 C 210.651 182.714,210.385 183.372,207.642 188.157 C 205.828 191.321,200.931 195.519,197.500 196.851 C 196.895 197.086,196.400 197.441,196.400 197.639 C 196.400 197.838,195.950 198.000,195.400 198.000 C 194.850 198.000,194.400 198.180,194.400 198.400 C 194.400 198.620,193.691 198.800,192.824 198.800 C 191.957 198.800,191.136 198.980,191.000 199.200 C 190.857 199.432,188.670 199.600,185.800 199.600 C 182.930 199.600,180.743 199.432,180.600 199.200 C 180.464 198.980,179.744 198.800,179.000 198.800 C 178.256 198.800,177.536 198.620,177.400 198.400 C 177.264 198.180,176.911 198.000,176.615 198.000 C 176.150 198.000,174.237 197.003,170.421 194.772 C 169.124 194.014,164.800 189.737,164.800 189.212 C 164.800 188.986,164.620 188.800,164.400 188.800 C 164.180 188.800,164.000 188.608,164.000 188.373 C 164.000 188.139,163.550 187.357,163.000 186.636 C 162.450 185.914,162.000 185.116,162.000 184.862 C 162.000 184.608,161.820 184.400,161.600 184.400 C 161.380 184.400,161.200 183.961,161.200 183.424 C 161.200 182.887,161.020 182.336,160.800 182.200 C 160.580 182.064,160.400 181.254,160.400 180.400 C 160.400 179.546,160.220 178.736,160.000 178.600 C 159.777 178.462,159.600 176.604,159.600 174.400 C 159.600 172.196,159.777 170.338,160.000 170.200 C 160.220 170.064,160.400 169.331,160.400 168.571 C 160.400 167.811,160.559 166.877,160.753 166.495 C 160.948 166.113,161.346 165.260,161.638 164.600 C 162.252 163.215,165.561 157.897,165.994 157.600 C 166.340 157.363,169.926 154.376,170.559 153.798 C 170.802 153.576,171.900 152.972,173.000 152.454 C 174.100 151.936,175.276 151.375,175.613 151.207 C 175.950 151.039,176.805 150.775,177.513 150.619 C 178.221 150.464,178.800 150.178,178.800 149.985 C 178.800 149.129,191.713 149.375,192.989 150.256 M171.305 213.087 C 171.914 213.179,172.814 213.177,173.305 213.082 C 173.797 212.987,173.300 212.911,172.200 212.914 C 171.100 212.917,170.697 212.995,171.305 213.087 M165.800 214.240 C 162.561 215.891,159.129 219.986,159.223 222.087 C 159.236 222.369,159.694 221.612,160.242 220.405 C 161.803 216.966,165.132 214.308,168.800 213.573 C 170.168 213.298,170.173 213.291,169.000 213.256 C 168.340 213.237,166.900 213.679,165.800 214.240 M175.600 213.573 C 177.750 214.004,180.037 215.181,181.799 216.764 L 183.399 218.200 181.999 216.650 C 180.453 214.937,176.979 213.175,175.289 213.246 C 174.338 213.286,174.377 213.328,175.600 213.573 M218.311 215.093 C 219.251 215.178,220.691 215.177,221.511 215.091 C 222.330 215.005,221.560 214.936,219.800 214.937 C 218.040 214.939,217.370 215.009,218.311 215.093 M213.600 215.681 C 213.050 215.916,212.038 216.352,211.352 216.648 C 194.519 223.928,197.205 249.014,215.334 253.840 C 225.605 256.575,239.445 247.102,239.146 237.541 C 239.116 236.583,239.023 236.250,238.940 236.800 C 237.120 248.892,223.004 257.752,213.505 252.765 C 213.123 252.564,212.620 252.400,212.386 252.400 C 210.990 252.400,206.774 249.036,204.364 246.000 C 200.441 241.056,199.148 232.514,201.627 227.905 C 201.832 227.523,202.000 227.006,202.000 226.756 C 202.000 226.017,205.464 221.383,206.887 220.219 C 209.917 217.740,211.358 216.922,214.363 215.977 C 215.740 215.543,216.216 215.269,215.600 215.264 C 215.050 215.258,214.150 215.446,213.600 215.681 M225.800 216.274 C 232.936 218.899,237.688 224.498,238.809 231.600 L 239.093 233.400 239.147 231.719 C 239.349 225.364,229.800 215.068,223.847 215.222 C 223.381 215.234,224.260 215.707,225.800 216.274 M183.800 219.600 C 184.141 220.260,184.511 220.800,184.621 220.800 C 184.731 220.800,184.541 220.260,184.200 219.600 C 183.859 218.940,183.489 218.400,183.379 218.400 C 183.269 218.400,183.459 218.940,183.800 219.600 M185.085 222.800 C 185.453 225.164,185.453 228.211,185.086 230.200 L 184.790 231.800 185.389 230.000 C 186.145 227.728,186.147 225.550,185.394 223.000 L 184.804 221.000 185.085 222.800 M158.944 226.400 C 158.944 228.490,159.012 229.345,159.094 228.300 C 159.176 227.255,159.176 225.545,159.094 224.500 C 159.012 223.455,158.944 224.310,158.944 226.400 M159.218 230.651 C 159.115 233.203,164.728 239.226,167.178 239.191 C 167.520 239.186,167.068 238.850,166.174 238.444 C 163.625 237.286,161.563 235.217,160.349 232.600 C 159.737 231.280,159.228 230.403,159.218 230.651 M183.049 234.582 C 182.050 236.107,180.816 237.120,178.642 238.204 C 177.542 238.752,176.865 239.200,177.137 239.200 C 178.660 239.200,184.000 235.129,184.000 233.968 C 184.000 233.367,183.731 233.541,183.049 234.582 M168.538 239.694 C 168.792 239.856,170.440 239.988,172.200 239.988 C 173.960 239.988,175.608 239.856,175.862 239.694 C 176.116 239.532,174.468 239.400,172.200 239.400 C 169.932 239.400,168.284 239.532,168.538 239.694 " stroke="none" fill="#acd494" fill-rule="evenodd"></path></g></svg>